<?xml version="1.0" encoding="UTF-8" standalone="no"?>
<!-- Created with Inkscape (http://www.inkscape.org/) -->

<svg
   xmlns:dc="http://purl.org/dc/elements/1.1/"
   xmlns:cc="http://creativecommons.org/ns#"
   xmlns:rdf="http://www.w3.org/1999/02/22-rdf-syntax-ns#"
   xmlns:svg="http://www.w3.org/2000/svg"
   xmlns="http://www.w3.org/2000/svg"
   xmlns:sodipodi="http://sodipodi.sourceforge.net/DTD/sodipodi-0.dtd"
   xmlns:inkscape="http://www.inkscape.org/namespaces/inkscape"
   width="204.47229"
   height="199.01794"
   id="svg2"
   version="1.1"
   inkscape:version="0.48.4 r9939"
   sodipodi:docname="2d-ansatz-lochkamera.emf">
  <title
     id="title3071">Vereinfachtes Lochkameramodell</title>
  <defs
     id="defs4" />
  <sodipodi:namedview
     id="base"
     pagecolor="#ffffff"
     bordercolor="#666666"
     borderopacity="1.0"
     inkscape:pageopacity="0.0"
     inkscape:pageshadow="2"
     inkscape:zoom="0.49497475"
     inkscape:cx="48.477894"
     inkscape:cy="-256.64761"
     inkscape:document-units="px"
     inkscape:current-layer="g2989"
     showgrid="false"
     fit-margin-top="0"
     fit-margin-left="0"
     fit-margin-right="0"
     fit-margin-bottom="0"
     inkscape:window-width="1046"
     inkscape:window-height="697"
     inkscape:window-x="75"
     inkscape:window-y="75"
     inkscape:window-maximized="0" />
  <metadata
     id="metadata7">
    <rdf:RDF>
      <cc:Work
         rdf:about="">
        <dc:format>image/svg+xml</dc:format>
        <dc:type
           rdf:resource="http://purl.org/dc/dcmitype/StillImage" />
        <dc:title>Vereinfachtes Lochkameramodell</dc:title>
      </cc:Work>
    </rdf:RDF>
  </metadata>
  <g
     inkscape:label="Ebene 1"
     inkscape:groupmode="layer"
     id="layer1"
     transform="translate(-12.555053,-14.21661)">
    <g
       id="g2989"
       transform="translate(89.83635,120.47249)">
      <path
         id="path2993"
         d="m -28.766642,-106.1371 0,198.5365 -0.938,0 0,-198.5365 z"
         style="fill:#92d050;fill-opacity:1;fill-rule:nonzero;stroke:#92d050;stroke-width:0.01875995px;stroke-linecap:butt;stroke-linejoin:round;stroke-opacity:1;stroke-dasharray:none"
         inkscape:connector-curvature="0" />
      <path
         id="path2995"
         d="m -28.776022,-91.96396 0,7.09126 -0.938,0 0,-7.09126 z"
         style="fill:#4a7ebb;fill-opacity:1;fill-rule:nonzero;stroke:#4a7ebb;stroke-width:0.00937997px;stroke-linecap:butt;stroke-linejoin:round;stroke-opacity:1;stroke-dasharray:none"
         inkscape:connector-curvature="0" />
      <path
         id="path2997"
         d="m -46.945032,-85.33232 163.080212,0.22512 -0.0188,0.93799 -163.061452,-0.22512 z"
         style="fill:#4a7ebb;fill-opacity:1;fill-rule:nonzero;stroke:#4a7ebb;stroke-width:0.01875995px;stroke-linecap:butt;stroke-linejoin:round;stroke-opacity:1;stroke-dasharray:none"
         inkscape:connector-curvature="0" />
      <path
         id="path2999"
         d="m -7.5022418,-91.96396 0,7.09126 -0.938,0 0,-7.09126 z"
         style="fill:#4a7ebb;fill-opacity:1;fill-rule:nonzero;stroke:#4a7ebb;stroke-width:0.00937997px;stroke-linecap:butt;stroke-linejoin:round;stroke-opacity:1;stroke-dasharray:none"
         inkscape:connector-curvature="0" />
      <path
         id="path3001"
         d="m 13.771528,-92.19846 0,7.09126 -0.93799,0 0,-7.09126 z"
         style="fill:#4a7ebb;fill-opacity:1;fill-rule:nonzero;stroke:#4a7ebb;stroke-width:0.00937997px;stroke-linecap:butt;stroke-linejoin:round;stroke-opacity:1;stroke-dasharray:none"
         inkscape:connector-curvature="0" />
      <path
         id="path3003"
         d="m 35.045308,-91.96396 0,7.09126 -0.938,0 0,-7.09126 z"
         style="fill:#4a7ebb;fill-opacity:1;fill-rule:nonzero;stroke:#4a7ebb;stroke-width:0.00937997px;stroke-linecap:butt;stroke-linejoin:round;stroke-opacity:1;stroke-dasharray:none"
         inkscape:connector-curvature="0" />
      <path
         id="path3005"
         d="m 56.328468,-92.19846 0,7.09126 -0.938,0 0,-7.09126 z"
         style="fill:#4a7ebb;fill-opacity:1;fill-rule:nonzero;stroke:#4a7ebb;stroke-width:0.01875995px;stroke-linecap:butt;stroke-linejoin:round;stroke-opacity:1;stroke-dasharray:none"
         inkscape:connector-curvature="0" />
      <path
         id="path3007"
         d="m 77.602248,-91.95458 0,7.09126 -0.938,0 0,-7.09126 z"
         style="fill:#4a7ebb;fill-opacity:1;fill-rule:nonzero;stroke:#4a7ebb;stroke-width:0.01875995px;stroke-linecap:butt;stroke-linejoin:round;stroke-opacity:1;stroke-dasharray:none"
         inkscape:connector-curvature="0" />
      <path
         id="path3009"
         d="m 98.876028,-91.72946 0,7.09125 -0.938,0 0,-7.09125 z"
         style="fill:#4a7ebb;fill-opacity:1;fill-rule:nonzero;stroke:#4a7ebb;stroke-width:0.01875995px;stroke-linecap:butt;stroke-linejoin:round;stroke-opacity:1;stroke-dasharray:none"
         inkscape:connector-curvature="0" />
      <path
         id="path3011"
         d="m -50.059182,-106.19338 21.27378,198.55526 -0.91924,0.0938 -21.27378,-198.55526 z"
         style="fill:#c0504d;fill-opacity:1;fill-rule:nonzero;stroke:#c0504d;stroke-width:0.01875995px;stroke-linecap:butt;stroke-linejoin:round;stroke-opacity:1;stroke-dasharray:none"
         inkscape:connector-curvature="0" />
      <path
         id="path3013"
         d="m 126.39687,-99.346 -156.007712,191.464 0.73164,0.58156 156.007702,-191.464 z"
         style="fill:#c0504d;fill-opacity:1;fill-rule:nonzero;stroke:#c0504d;stroke-width:0.01875995px;stroke-linecap:butt;stroke-linejoin:round;stroke-opacity:1;stroke-dasharray:none"
         inkscape:connector-curvature="0" />
      <path
         id="path3015"
         d="m -71.651882,13.94531 120.55141,35.45629 -0.26264,0.90048 -120.55141,-35.4563 z"
         style="fill:#002060;fill-opacity:1;fill-rule:nonzero;stroke:#002060;stroke-width:0.01875995px;stroke-linecap:butt;stroke-linejoin:round;stroke-opacity:1;stroke-dasharray:none"
         inkscape:connector-curvature="0" />
      <text
         id="text3017"
         style="font-size:8.70461464px;font-style:normal;font-weight:normal;text-align:start;text-anchor:start;fill:#000000;font-family:Calibri"
         y="-86.98922"
         x="-45.181644"
         xml:space="preserve">Δ</text>
      <text
         id="text3019"
         style="font-size:8.70461464px;font-style:normal;font-weight:normal;text-align:start;text-anchor:start;fill:#000000;font-family:Calibri"
         y="-86.98922"
         x="-40.229023"
         xml:space="preserve">bx</text>
      <path
         id="path3021"
         d="m -29.442002,-86.12962 -17.91575,0 0,2.50445 17.91575,0 z"
         style="fill:#ff0000;fill-opacity:1;fill-rule:nonzero;stroke:#ff0000;stroke-width:0.00937997px;stroke-linecap:butt;stroke-linejoin:round;stroke-opacity:1;stroke-dasharray:none"
         inkscape:connector-curvature="0" />
      <path
         id="path3023"
         d="m -21.093822,25.42639 c 0,0.0188 -0.0188,0.0375 -0.0375,0.0563 -0.0188,0.0188 -0.0375,0.0188 -0.0563,0.0375 -0.0375,0 -0.075,0 -0.13132,-0.0188 -0.0375,0 -0.0938,-0.0188 -0.16884,-0.0375 -0.0938,-0.0188 -0.1876,-0.0563 -0.24388,-0.075 -0.0563,-0.0188 -0.0938,-0.0563 -0.11256,-0.0938 -0.0188,-0.0188 -0.0375,-0.0563 -0.0563,-0.0938 l -1.18188,-3.18919 -0.7504,2.6264 c -0.0188,0.0188 -0.0188,0.0375 -0.0375,0.0563 -0.0188,0.0188 -0.0375,0.0188 -0.075,0.0188 -0.0188,0 -0.0563,0 -0.11256,0 -0.0375,0 -0.11256,-0.0188 -0.16884,-0.0375 -0.075,-0.0188 -0.13132,-0.0375 -0.16884,-0.0563 -0.0375,-0.0188 -0.075,-0.0375 -0.0938,-0.0563 -0.0375,-0.0188 -0.0563,-0.0375 -0.0563,-0.0563 0,-0.0188 0,-0.0563 0,-0.075 l 1.48203,-5.06519 c 0,-0.0188 0.0188,-0.0375 0.0188,-0.0563 0.0188,0 0.0375,-0.0188 0.075,-0.0188 0.0375,0 0.075,0 0.11256,0.0188 0.0563,0 0.11256,0.0188 0.16884,0.0375 0.075,0.0188 0.13132,0.0375 0.16884,0.0563 0.0375,0.0188 0.075,0.0375 0.11256,0.0563 0.0188,0.0188 0.0375,0.0375 0.0375,0.0563 0,0.0188 0,0.0375 0,0.0563 l -0.67536,2.34499 2.55135,-1.80095 c 0.0188,-0.0188 0.0375,-0.0375 0.075,-0.0375 0.0188,-0.0188 0.0563,-0.0188 0.0938,-0.0188 0.0188,0 0.0563,0 0.11256,0 0.0375,0.0188 0.11256,0.0188 0.16884,0.0563 0.075,0.0188 0.13132,0.0375 0.16884,0.0563 0.0563,0.0188 0.075,0.0375 0.0938,0.0563 0.0375,0.0188 0.0375,0.0375 0.0563,0.0563 0,0.0188 0,0.0375 0,0.0563 -0.0188,0.0375 -0.0375,0.0563 -0.0563,0.0938 -0.0375,0.0375 -0.075,0.075 -0.15008,0.11256 l -2.36375,1.59459 1.16312,3.05787 c 0.0188,0.075 0.0375,0.13132 0.0375,0.16884 0,0.0188 0,0.0375 0,0.0563 z m 3.56438,1.05056 c -0.0188,0.0375 -0.0375,0.0563 -0.0563,0.075 -0.0188,0 -0.0563,0.0188 -0.0938,0 -0.0375,0 -0.11256,0 -0.16884,-0.0375 -0.075,-0.0188 -0.13132,-0.0375 -0.16884,-0.0563 -0.0375,-0.0188 -0.075,-0.0375 -0.0938,-0.0563 0,-0.0188 0,-0.0563 0,-0.0938 l 0.11256,-0.35644 c -0.22512,0.11256 -0.43148,0.20636 -0.6566,0.24388 -0.22512,0.0375 -0.45024,0.0188 -0.67536,-0.0375 -0.1876,-0.0563 -0.35644,-0.13132 -0.48776,-0.22512 -0.15008,-0.0938 -0.26264,-0.20636 -0.33768,-0.33768 -0.0938,-0.13132 -0.15008,-0.2814 -0.16884,-0.43148 -0.0188,-0.15007 0,-0.31891 0.0563,-0.50651 0.0563,-0.20636 0.15008,-0.3752 0.2814,-0.48776 0.13132,-0.13132 0.2814,-0.22512 0.469,-0.2814 0.1876,-0.0563 0.39396,-0.075 0.63784,-0.0563 0.24388,0.0188 0.50652,0.0563 0.80668,0.15008 l 0.50652,0.15008 0.075,-0.30016 c 0.0375,-0.13132 0.0563,-0.26264 0.075,-0.3752 0,-0.13132 -0.0375,-0.22512 -0.075,-0.31892 -0.0375,-0.0938 -0.11255,-0.16884 -0.20635,-0.24388 -0.0938,-0.0563 -0.22512,-0.11256 -0.3752,-0.16884 -0.16884,-0.0375 -0.31892,-0.0563 -0.469,-0.0563 -0.15008,0 -0.2814,0 -0.39396,0.0188 -0.11256,0.0188 -0.20636,0.0375 -0.2814,0.0563 -0.075,0.0188 -0.13132,0.0375 -0.16884,0.0188 -0.0188,0 -0.0375,-0.0188 -0.0563,-0.0375 0,0 -0.0188,-0.0375 -0.0188,-0.0563 0,-0.0188 0,-0.0563 0,-0.0938 0,-0.0375 0.0188,-0.075 0.0188,-0.11256 0.0188,-0.075 0.0375,-0.11256 0.0563,-0.15008 0.0375,-0.0375 0.0563,-0.075 0.11256,-0.0938 0.0375,-0.0188 0.11256,-0.0563 0.22512,-0.075 0.0938,-0.0188 0.22512,-0.0375 0.33768,-0.0375 0.13132,0 0.2814,0 0.41272,0.0188 0.15008,0 0.30016,0.0375 0.43148,0.075 0.26264,0.075 0.48775,0.16884 0.65659,0.2814 0.16884,0.11256 0.2814,0.24388 0.3752,0.39396 0.075,0.15008 0.11256,0.31892 0.11256,0.50652 0.0188,0.1876 -0.0188,0.39396 -0.0938,0.61908 z m -0.18759,-1.85723 -0.5628,-0.16884 c -0.1876,-0.0563 -0.35644,-0.0938 -0.50652,-0.0938 -0.15008,-0.0188 -0.26264,0 -0.3752,0.0375 -0.11256,0.0375 -0.1876,0.0938 -0.26264,0.16884 -0.075,0.0563 -0.11256,0.15008 -0.15008,0.26264 -0.0563,0.20636 -0.0375,0.37519 0.0563,0.50651 0.075,0.15008 0.22512,0.26264 0.45024,0.31892 0.1876,0.0563 0.35644,0.0563 0.52528,0.0188 0.1876,-0.0563 0.3752,-0.15008 0.60032,-0.2814 z m 6.90366,3.80827 c 0,0.0188 -0.0188,0.0375 -0.0375,0.0563 0,0 -0.0375,0.0188 -0.0563,0.0188 -0.0375,0 -0.075,0 -0.11256,0 -0.0375,-0.0188 -0.0938,-0.0188 -0.16884,-0.0375 -0.0563,-0.0188 -0.11256,-0.0375 -0.16884,-0.0563 -0.0375,-0.0188 -0.0563,-0.0375 -0.0938,-0.0563 -0.0188,-0.0188 -0.0375,-0.0375 -0.0375,-0.0563 0,-0.0188 0,-0.0375 0,-0.0563 l 0.63784,-2.23244 c 0.0563,-0.16884 0.075,-0.30016 0.0938,-0.45024 0,-0.13132 0,-0.24388 -0.0375,-0.35644 -0.0375,-0.11255 -0.0938,-0.20635 -0.16884,-0.28139 -0.075,-0.075 -0.16884,-0.13132 -0.30016,-0.16884 -0.15008,-0.0563 -0.33768,-0.0375 -0.52528,0.0375 -0.1876,0.075 -0.41272,0.20636 -0.67536,0.37519 l -0.73164,2.57012 c -0.0188,0.0188 -0.0188,0.0375 -0.0375,0.0563 -0.0188,0 -0.0375,0.0188 -0.0563,0.0188 -0.0375,0 -0.075,0 -0.11256,0 -0.0563,-0.0188 -0.11256,-0.0188 -0.16884,-0.0375 -0.075,-0.0188 -0.11256,-0.0375 -0.16884,-0.0563 -0.0375,-0.0188 -0.075,-0.0375 -0.0938,-0.0563 -0.0188,-0.0188 -0.0375,-0.0375 -0.0375,-0.0563 0,-0.0188 0,-0.0375 0,-0.0563 l 0.63784,-2.23244 c 0.0563,-0.16883 0.075,-0.30015 0.0938,-0.45023 0,-0.13132 -0.0188,-0.24388 -0.0375,-0.35644 -0.0375,-0.11256 -0.0938,-0.20636 -0.16884,-0.2814 -0.075,-0.075 -0.1876,-0.13132 -0.30016,-0.16884 -0.16884,-0.0375 -0.33768,-0.0375 -0.52527,0.0375 -0.1876,0.075 -0.41272,0.20636 -0.67536,0.3752 l -0.7504,2.57011 c 0,0.0188 0,0.0375 -0.0188,0.0563 -0.0188,0.0188 -0.0375,0.0188 -0.075,0.0188 -0.0188,0 -0.0563,0 -0.0938,0 -0.0563,-0.0188 -0.11256,-0.0188 -0.1876,-0.0375 -0.0563,-0.0188 -0.11256,-0.0375 -0.15008,-0.0563 -0.0375,-0.0188 -0.075,-0.0375 -0.0938,-0.0563 -0.0188,-0.0188 -0.0375,-0.0375 -0.0563,-0.0563 0,-0.0188 0,-0.0375 0.0188,-0.0563 l 1.05056,-3.67695 c 0.0188,-0.0188 0.0188,-0.0375 0.0375,-0.0563 0.0188,0 0.0375,-0.0188 0.0563,-0.0188 0.0375,0 0.0563,0 0.11256,0 0.0375,0 0.075,0.0188 0.15008,0.0375 0.0563,0.0188 0.11256,0.0375 0.15008,0.0563 0.0375,0 0.0563,0.0188 0.075,0.0375 0.0188,0.0188 0.0375,0.0375 0.0375,0.0563 0,0.0188 0,0.0375 0,0.0563 l -0.15008,0.48776 c 0.2814,-0.16884 0.52528,-0.2814 0.75039,-0.33768 0.22512,-0.0375 0.45024,-0.0375 0.63784,0.0188 0.15008,0.0375 0.2814,0.0938 0.39396,0.16884 0.11256,0.075 0.20636,0.15008 0.2814,0.24388 0.075,0.0938 0.13132,0.1876 0.16884,0.30016 0.0375,0.11256 0.075,0.22512 0.075,0.33768 0.16884,-0.0938 0.31892,-0.16884 0.45024,-0.22512 0.13132,-0.075 0.26264,-0.11256 0.39396,-0.13132 0.11256,-0.0375 0.22512,-0.0563 0.31892,-0.0375 0.11256,0 0.20636,0 0.31892,0.0375 0.22512,0.075 0.41271,0.16884 0.54403,0.30016 0.15008,0.13132 0.24388,0.2814 0.30016,0.45024 0.0563,0.16884 0.075,0.33767 0.075,0.54403 -0.0188,0.1876 -0.0563,0.39396 -0.11256,0.60032 z m 4.8963402,-0.7504 c -0.0375,0.11256 -0.075,0.1876 -0.15008,0.20636 -0.0563,0.0375 -0.13132,0.0375 -0.20636,0.0188 l -2.42003,-0.69412 c -0.0563,0.20636 -0.075,0.39396 -0.0938,0.5628 0,0.16884 0.0188,0.33768 0.0938,0.48776 0.0563,0.13132 0.15008,0.26264 0.2814,0.37519 0.15008,0.0938 0.31892,0.1876 0.54404,0.24388 0.16884,0.0563 0.33768,0.0938 0.469,0.0938 0.15008,0.0188 0.28139,0.0188 0.39395,0.0188 0.11256,-0.0188 0.20636,-0.0188 0.26264,-0.0375 0.075,0 0.13132,0 0.16884,0 0.0188,0.0188 0.0375,0.0188 0.0375,0.0375 0.0188,0.0188 0.0188,0.0375 0.0375,0.0563 0,0.0188 0,0.0375 -0.0188,0.075 0,0.0375 0,0.075 -0.0188,0.13132 -0.0188,0.0375 -0.0188,0.0563 -0.0375,0.0938 0,0.0188 -0.0188,0.0375 -0.0188,0.0563 -0.0188,0.0188 -0.0375,0.0375 -0.0375,0.0563 -0.0188,0.0188 -0.0375,0.0188 -0.0563,0.0375 -0.0188,0 -0.075,0.0188 -0.15008,0.0375 -0.0938,0 -0.1876,0.0188 -0.31892,0.0188 -0.13131,0 -0.28139,-0.0188 -0.43147,-0.0375 -0.16884,-0.0188 -0.33768,-0.0563 -0.50652,-0.0938 -0.30016,-0.0938 -0.54404,-0.20636 -0.7504,-0.35644 -0.20636,-0.15008 -0.35644,-0.33768 -0.469,-0.54403 -0.11256,-0.22512 -0.16884,-0.469 -0.16884,-0.73164 0,-0.2814 0.0375,-0.58156 0.13132,-0.90048 0.0938,-0.31892 0.22512,-0.60032 0.3752,-0.82544 0.15008,-0.22512 0.33768,-0.41272 0.54404,-0.54404 0.1876,-0.13132 0.41272,-0.20636 0.6566,-0.24388 0.26264,-0.0188 0.50652,0 0.78791,0.075 0.2814,0.0938 0.50652,0.20636 0.69412,0.35644 0.16884,0.15008 0.30016,0.31892 0.39396,0.52528 0.075,0.1876 0.11256,0.39396 0.11256,0.61908 0,0.24388 -0.0188,0.469 -0.0938,0.71288 z m -0.61908,-0.39396 c 0.11256,-0.33768 0.11256,-0.63784 0,-0.90048 -0.0938,-0.24388 -0.31892,-0.41272 -0.63784,-0.50652 -0.16883,-0.0563 -0.33767,-0.0563 -0.46899,-0.0375 -0.15008,0.0188 -0.2814,0.075 -0.39396,0.15008 -0.11256,0.0938 -0.20636,0.1876 -0.30016,0.31892 -0.0938,0.11256 -0.15008,0.24388 -0.20636,0.39396 z m 4.22099,-0.11256 c -0.0188,0.0563 -0.0188,0.11256 -0.0375,0.15008 -0.0188,0.0375 -0.0375,0.075 -0.0563,0.0938 0,0.0188 -0.0188,0.0375 -0.0375,0.0375 -0.0188,0.0188 -0.0375,0.0188 -0.0563,0.0188 -0.0188,-0.0188 -0.0375,-0.0188 -0.075,-0.0563 -0.0188,-0.0188 -0.0563,-0.0375 -0.0938,-0.0563 -0.0375,-0.0188 -0.075,-0.0563 -0.13132,-0.075 -0.0375,-0.0188 -0.0938,-0.0563 -0.15008,-0.0563 -0.0563,-0.0188 -0.13132,-0.0375 -0.20636,-0.0188 -0.075,0 -0.15008,0.0188 -0.24388,0.075 -0.0938,0.0375 -0.1876,0.0938 -0.30016,0.16884 -0.11255,0.0938 -0.24387,0.1876 -0.37519,0.31892 l -0.69412,2.40127 c -0.0188,0.0375 -0.0188,0.0375 -0.0375,0.0563 -0.0188,0.0188 -0.0375,0.0188 -0.0563,0.0188 -0.0375,0.0188 -0.075,0 -0.11256,0 -0.0563,0 -0.11256,-0.0188 -0.16884,-0.0375 -0.075,-0.0188 -0.13132,-0.0375 -0.16884,-0.0563 -0.0375,-0.0188 -0.075,-0.0375 -0.0938,-0.0563 -0.0188,-0.0188 -0.0375,-0.0375 -0.0375,-0.0563 -0.0188,-0.0188 -0.0188,-0.0375 0,-0.0563 l 1.06932,-3.67695 c 0,-0.0188 0,-0.0375 0.0188,-0.0563 0.0188,0 0.0375,-0.0188 0.0563,-0.0188 0.0375,0 0.075,0 0.11256,0 0.0375,0.0188 0.0938,0.0188 0.15008,0.0375 0.0563,0.0188 0.11256,0.0375 0.15008,0.0563 0.0375,0.0188 0.0563,0.0375 0.075,0.0563 0.0188,0.0188 0.0375,0.0188 0.0375,0.0375 0,0.0188 0,0.0375 0,0.075 l -0.15007,0.52528 c 0.13131,-0.11256 0.26263,-0.20636 0.37519,-0.2814 0.13132,-0.0563 0.22512,-0.11256 0.31892,-0.13132 0.0938,-0.0375 0.1876,-0.0563 0.26264,-0.0563 0.0938,0 0.16884,0.0188 0.24388,0.0375 0.0375,0.0188 0.075,0.0375 0.13132,0.0563 0.0375,0 0.075,0.0375 0.13132,0.0563 0.0375,0.0188 0.0938,0.0563 0.11256,0.075 0.0375,0.0188 0.075,0.0375 0.075,0.0563 0.0188,0.0188 0.0188,0.0375 0.0188,0.0563 0,0.0188 0,0.0375 0,0.0563 0,0.0188 0,0.0375 0,0.075 -0.0188,0.0375 -0.0375,0.0938 -0.0563,0.15008 z m 2.51382997,4.46487 c -0.0188,0.0188 -0.0375,0.0563 -0.0563,0.0563 -0.0188,0.0188 -0.0563,0.0188 -0.0938,0.0188 -0.0375,-0.0188 -0.11256,-0.0188 -0.16884,-0.0375 -0.075,-0.0188 -0.13132,-0.0563 -0.16884,-0.075 -0.0375,-0.0188 -0.075,-0.0375 -0.0938,-0.0563 0,-0.0188 0,-0.0563 0,-0.075 l 0.11255,-0.3752 c -0.20635,0.13132 -0.43147,0.20636 -0.65659,0.24388 -0.22511997,0.0375 -0.45023997,0.0188 -0.67535997,-0.0375 -0.1876,-0.0563 -0.35644,-0.13132 -0.48776,-0.22512 -0.15008,-0.0938 -0.26264,-0.20636 -0.33768,-0.33768 -0.0938,-0.13132 -0.15008,-0.26264 -0.16884,-0.43148 -0.0188,-0.15008 0,-0.31892 0.0563,-0.48776 0.0563,-0.20636 0.15008,-0.3752 0.2814,-0.50652 0.13132,-0.13132 0.2814,-0.22512 0.469,-0.2814 0.1876,-0.0563 0.39396,-0.075 0.63784,-0.0563 0.24387997,0.0188 0.52527997,0.075 0.80666997,0.15008 l 0.50652,0.15008 0.075,-0.2814 c 0.0375,-0.15008 0.0563,-0.2814 0.075,-0.39396 0,-0.11255 -0.0375,-0.22511 -0.075,-0.31891 -0.0375,-0.0938 -0.11256,-0.16884 -0.20636,-0.22512 -0.0938,-0.075 -0.22512,-0.13132 -0.3752,-0.16884 -0.16883,-0.0563 -0.31891,-0.075 -0.46899,-0.075 -0.15008,0 -0.28139997,0 -0.39395997,0.0188 -0.11256,0.0188 -0.20636,0.0375 -0.2814,0.075 -0.075,0.0188 -0.13132,0.0188 -0.16884,0 -0.0188,0 -0.0375,-0.0188 -0.0563,-0.0188 0,-0.0188 -0.0188,-0.0375 -0.0188,-0.075 0,-0.0188 0,-0.0563 0,-0.0938 0,-0.0188 0.0188,-0.0563 0.0188,-0.11256 0.0188,-0.0563 0.0375,-0.11256 0.0563,-0.15008 0.0375,-0.0375 0.0563,-0.075 0.11256,-0.0938 0.0375,-0.0188 0.11256,-0.0375 0.22512,-0.075 0.0938,-0.0188 0.22512,-0.0188 0.33767997,-0.0375 0.13132,0 0.2814,0 0.41272,0.0188 0.15008,0.0188 0.30015,0.0375 0.43147,0.075 0.26264,0.075 0.48776,0.1876 0.6566,0.30016 0.16884,0.11256 0.2814,0.24388 0.3752,0.39396 0.075,0.15008 0.11256003,0.30016 0.11256003,0.48776 0.0188,0.18759 -0.0188,0.39395 -0.0938,0.63783 z m -0.1876,-1.876 -0.56279,-0.16884 c -0.1876,-0.0563 -0.35644,-0.0938 -0.50651997,-0.0938 -0.15008,0 -0.26264,0 -0.3752,0.0375 -0.11256,0.0375 -0.1876,0.0938 -0.26264,0.16884 -0.075,0.075 -0.11256,0.16884 -0.15008,0.2814 -0.0563,0.1876 -0.0375,0.35644 0.0563,0.50652 0.075,0.15008 0.24388,0.24388 0.45024,0.31892 0.1876,0.0375 0.35643997,0.0375 0.52527997,0 0.1876,-0.0375 0.3752,-0.13132 0.60031,-0.2814 z M 5.3952182,31.0919 c -0.0938,0.31892 -0.20636,0.60032 -0.35644,0.82544 -0.15008,0.22511 -0.30016,0.41271 -0.48776,0.56279 -0.1876,0.13132 -0.39396,0.22512 -0.61908,0.26264 -0.22512,0.0375 -0.469,0.0188 -0.71288,-0.0563 -0.11256,-0.0188 -0.22511,-0.075 -0.31891,-0.11256 -0.0938,-0.0563 -0.1876,-0.13132 -0.26264,-0.20636 -0.075,-0.075 -0.15008,-0.16884 -0.22512,-0.2814 -0.075,-0.0938 -0.15008,-0.22511 -0.22512,-0.37519 l -0.13132,0.45023 c 0,0.0188 -0.0188,0.0375 -0.0188,0.0563 -0.0188,0.0188 -0.0375,0.0188 -0.075,0.0188 -0.0188,0 -0.0563,0 -0.0938,0 -0.0375,0 -0.0938,-0.0188 -0.15008,-0.0375 -0.0563,-0.0188 -0.0938,-0.0188 -0.13132,-0.0375 -0.0375,-0.0188 -0.0563,-0.0375 -0.0938,-0.0563 -0.0188,-0.0188 -0.0188,-0.0375 -0.0375,-0.0563 0,-0.0188 0,-0.0375 0.0188,-0.0563 l 1.57584,-5.45915 c 0,-0.0188 0.0188,-0.0375 0.0375,-0.0375 0,-0.0188 0.0375,-0.0375 0.0563,-0.0375 0.0375,0 0.075,0 0.11256,0 0.0375,0.0188 0.0938,0.0375 0.16884,0.0563 0.0563,0.0188 0.11256,0.0375 0.16884,0.0563 0.0375,0.0188 0.075,0.0375 0.0938,0.0375 0.0188,0.0188 0.0375,0.0375 0.0375,0.0563 0,0.0375 0,0.0563 0,0.075 l -0.63784,2.19491 c 0.13132,-0.075 0.26264,-0.15008 0.39396,-0.1876 0.13132,-0.0563 0.24388,-0.075 0.35644,-0.0938 0.11256,-0.0188 0.22512,-0.0375 0.31892,-0.0188 0.11256,0 0.20636,0.0188 0.31892,0.0563 0.26264,0.075 0.48776,0.1876 0.63784,0.35644 0.16884,0.15008 0.2814,0.33768 0.33768,0.5628 0.075,0.20636 0.0938,0.43148 0.075,0.69412 0,0.26264 -0.0563,0.52528 -0.13132,0.78792 z m -0.71288,-0.13132 c 0.0375,-0.1876 0.075,-0.3752 0.11256,-0.5628 0.0188,-0.1876 0.0188,-0.35644 -0.0188,-0.50652 -0.0375,-0.15008 -0.0938,-0.30016 -0.1876,-0.41272 -0.0938,-0.11256 -0.22512,-0.20636 -0.41272,-0.24388 -0.075,-0.0375 -0.16884,-0.0375 -0.26264,-0.0375 -0.0938,0 -0.1876,0 -0.30016,0.0375 -0.0938,0.0375 -0.20636,0.075 -0.33768,0.15008 -0.11256,0.0563 -0.24387,0.13132 -0.39395,0.24388 l -0.43148,1.46328 c 0.13132,0.2814 0.26264,0.50652 0.39396,0.67536 0.13132,0.16884 0.30015,0.28139 0.46899,0.33767 0.16884,0.0375 0.33768,0.0375 0.469,0 0.15008,-0.0563 0.2814,-0.13131 0.39396,-0.24387 0.11256,-0.11256 0.22512,-0.24388 0.30016,-0.41272 0.075,-0.15008 0.15008,-0.31892 0.20636,-0.48776 z m 1.7822,2.47631 c 0,0.0375 -0.0188,0.0375 -0.0375,0.0563 -0.0188,0.0188 -0.0375,0.0188 -0.0563,0.0188 -0.0375,0 -0.075,0 -0.11256,0 -0.0375,0 -0.0938,-0.0188 -0.16884,-0.0375 -0.075,-0.0188 -0.11256,-0.0375 -0.16884,-0.0563 -0.0375,-0.0188 -0.075,-0.0375 -0.0938,-0.0563 -0.0188,-0.0188 -0.0375,-0.0375 -0.0375,-0.0563 0,-0.0188 0,-0.0375 0,-0.0563 l 1.06931,-3.67695 c 0,-0.0188 0.0188,-0.0375 0.0188,-0.0375 0.0188,-0.0188 0.0375,-0.0375 0.075,-0.0375 0.0375,0 0.0563,0 0.11256,0 0.0375,0.0188 0.0938,0.0375 0.16884,0.0563 0.0563,0.0188 0.11256,0.0375 0.16884,0.0563 0.0375,0.0188 0.0563,0.0188 0.0938,0.0375 0.0188,0.0188 0.0188,0.0375 0.0375,0.0563 0,0.0188 0,0.0563 0,0.075 z m 1.50079,-4.87758 c -0.0375,0.15007 -0.11256,0.24387 -0.1876,0.28139 -0.075,0.0563 -0.1876,0.0375 -0.35644,0 -0.15008,-0.0563 -0.24388,-0.11256 -0.30016,-0.1876 -0.0375,-0.075 -0.0375,-0.18759 0.0188,-0.33767 0.0375,-0.15008 0.0938,-0.26264 0.16884,-0.30016 0.075,-0.0375 0.20636,-0.0375 0.35644,0.0188 0.16884,0.0375 0.26264,0.0938 0.30016,0.16884 0.0563,0.075 0.0563,0.1876 0,0.35644 z m 0.3752,5.42162 c 0,0.0375 -0.0188,0.0375 -0.0375,0.0563 -0.0188,0.0188 -0.0375,0.0188 -0.0563,0.0188 -0.0375,0 -0.075,0 -0.11256,0 -0.0563,0 -0.11256,-0.0188 -0.16884,-0.0375 -0.075,-0.0188 -0.11256,-0.0375 -0.16884,-0.0563 -0.0375,-0.0188 -0.075,-0.0375 -0.0938,-0.0563 -0.0188,-0.0188 -0.0375,-0.0375 -0.0375,-0.0563 0,-0.0188 0,-0.0375 0,-0.0563 l 1.57584,-5.45914 c 0.0188,-0.0188 0.0188,-0.0375 0.0375,-0.0563 0.0188,0 0.0375,-0.0188 0.0563,-0.0188 0.0375,0 0.075,0 0.11256,0 0.0563,0.0188 0.11256,0.0188 0.16884,0.0375 0.075,0.0375 0.13132,0.0563 0.16884,0.0563 0.0375,0.0188 0.075,0.0375 0.0938,0.0563 0.0188,0.0188 0.0375,0.0375 0.0375,0.0563 0.0188,0.0188 0.0188,0.0375 0,0.075 z m 4.3523098,1.27568 c -0.0188,0.0188 -0.0188,0.0375 -0.0375,0.0375 -0.0188,0.0188 -0.0375,0.0375 -0.0563,0.0375 -0.0375,0 -0.0563,0 -0.11256,0 -0.0375,-0.0188 -0.075,-0.0188 -0.13132,-0.0375 -0.0563,-0.0188 -0.11256,-0.0375 -0.15008,-0.0563 -0.0188,-0.0188 -0.0563,-0.0375 -0.075,-0.0375 -0.0188,-0.0188 -0.0375,-0.0375 -0.0375,-0.0563 -0.0188,-0.0188 -0.0188,-0.0563 0,-0.075 l 0.13132,-0.48776 c -0.24388,0.16884 -0.50652,0.26264 -0.7504,0.31892 -0.22512,0.0563 -0.48776,0.0563 -0.73164,-0.0188 -0.26264,-0.075 -0.48776,-0.20636 -0.63784,-0.35644 -0.1688298,-0.16884 -0.2813898,-0.35644 -0.3376698,-0.5628 -0.075,-0.20636 -0.0938,-0.45024 -0.075,-0.69412 0.0188,-0.26264 0.0563,-0.52528 0.13132,-0.78792 0.0938,-0.31892 0.2063498,-0.60031 0.3564298,-0.82543 0.13132,-0.24388 0.30016,-0.43148 0.48776,-0.5628 0.1876,-0.15008 0.39396,-0.24388 0.61908,-0.2814 0.22512,-0.0375 0.469,-0.0188 0.73164,0.0563 0.20636,0.075 0.39396,0.16884 0.54404,0.31892 0.15008,0.15008 0.2814,0.33768 0.41272,0.5628 l 0.61907,-2.13864 c 0,-0.0188 0,-0.0375 0.0188,-0.0375 0.0188,-0.0188 0.0375,-0.0375 0.075,-0.0375 0.0188,0 0.0563,0 0.11256,0.0188 0.0375,0 0.0938,0.0188 0.15008,0.0375 0.075,0.0188 0.13132,0.0375 0.16884,0.0563 0.0375,0.0188 0.075,0.0375 0.0938,0.0563 0.0188,0 0.0375,0.0188 0.0563,0.0563 0,0.0188 0,0.0375 0,0.0563 z m 0.0563,-2.79524 c -0.11256,-0.26264 -0.24388,-0.48775 -0.3752,-0.65659 -0.13132,-0.16884 -0.30016,-0.2814 -0.469,-0.33768 -0.1876,-0.0563 -0.33768,-0.0563 -0.48776,0 -0.13132,0.0375 -0.26264,0.11256 -0.3752,0.22512 -0.11256,0.11256 -0.20636,0.26264 -0.30016,0.41271 -0.075,0.16884 -0.15008,0.31892 -0.1876,0.50652 -0.0563,0.1876 -0.0938,0.35644 -0.13132,0.54404 -0.0188,0.1876 -0.0188,0.35644 0.0188,0.52528 0.0375,0.15008 0.0938,0.2814 0.1876,0.41272 0.0938,0.11256 0.22512,0.1876 0.41272,0.24388 0.075,0.0375 0.16884,0.0375 0.26264,0.0375 0.0938,0 0.1876,-0.0188 0.2814,-0.0375 0.11256,-0.0375 0.22512,-0.0938 0.33768,-0.15008 0.13132,-0.0563 0.26264,-0.15008 0.41272,-0.24388 z"
         style="fill:#000000;fill-opacity:1;fill-rule:nonzero;stroke:none"
         inkscape:connector-curvature="0" />
      <text
         id="text3025"
         style="font-size:8.70461464px;font-style:normal;font-weight:normal;text-align:start;text-anchor:start;fill:#000000;font-family:Calibri"
         y="-76.646233"
         x="8.1930189"
         xml:space="preserve">Beamerbild</text>
      <text
         id="text3027"
         style="font-size:8.70461464px;font-style:normal;font-weight:normal;text-align:start;text-anchor:start;fill:#000000;font-family:Calibri"
         y="-82.132896"
         x="-54.478306"
         xml:space="preserve">0</text>
      <text
         id="text3029"
         style="font-size:8.70461464px;font-style:normal;font-weight:normal;text-align:start;text-anchor:start;fill:#000000;font-family:Calibri"
         y="-81.064232"
         x="117.96517"
         xml:space="preserve">1</text>
      <text
         id="text3031"
         style="font-size:8.70461464px;font-style:normal;font-weight:normal;text-align:start;text-anchor:start;fill:#000000;font-family:Calibri"
         y="17.376659"
         x="-77.587318"
         xml:space="preserve">0</text>
      <text
         id="text3033"
         style="font-size:8.70461464px;font-style:normal;font-weight:normal;text-align:start;text-anchor:start;fill:#000000;font-family:Calibri"
         y="52.83247"
         x="52.128933"
         xml:space="preserve">1</text>
      <path
         id="path3035"
         d="m -28.916722,26.08299 -7.05374,-1.87599 -0.63784,2.40127 7.03498,1.89476 z"
         style="fill:#ff0000;fill-opacity:1;fill-rule:nonzero;stroke:#ff0000;stroke-width:0.01875995px;stroke-linecap:butt;stroke-linejoin:round;stroke-opacity:1;stroke-dasharray:none"
         inkscape:connector-curvature="0" />
      <text
         id="text3037"
         style="font-size:8.70461464px;font-style:normal;font-weight:normal;text-align:start;text-anchor:start;fill:#000000;font-family:Calibri"
         y="32.992016"
         x="-52.660114"
         xml:space="preserve">Δ</text>
      <text
         id="text3039"
         style="font-size:8.70461464px;font-style:normal;font-weight:normal;text-align:start;text-anchor:start;fill:#000000;font-family:Calibri"
         y="32.992016"
         x="-47.707478"
         xml:space="preserve">kx</text>
    </g>
  </g>
</svg>
